<svg xmlns="http://www.w3.org/2000/svg" xmlns:xlink="http://www.w3.org/1999/xlink" viewBox="0,0,256,256" width="18px" height="18px" fill-rule="evenodd"><g fill="#757185" fill-rule="evenodd" stroke="none" stroke-width="1" stroke-linecap="butt" stroke-linejoin="miter" stroke-miterlimit="10" stroke-dasharray="" stroke-dashoffset="0" font-family="none" font-weight="none" font-size="none" text-anchor="none" style="mix-blend-mode: normal"><g transform="scale(10.66667,10.66667)"><path d="M20.596,21h-4.937c-0.435,0 -0.843,-0.213 -1.093,-0.57l-3.536,-5.059c-0.25,-0.358 -0.771,-0.383 -1.054,-0.051l-4.572,5.364c-0.17,0.201 -0.419,0.316 -0.682,0.316h-0.034c-0.766,0 -1.18,-0.897 -0.682,-1.48l5.116,-5.994c0.197,-0.231 0.213,-0.566 0.039,-0.815l-6.063,-8.662c-0.309,-0.442 0.007,-1.049 0.546,-1.049h4.956c0.435,0 0.843,0.212 1.093,0.569l3.086,4.413c0.25,0.357 0.77,0.382 1.053,0.051l4.032,-4.719c0.17,-0.199 0.419,-0.314 0.682,-0.314v0c0.766,0 1.179,0.897 0.683,1.479l-4.56,5.346c-0.197,0.231 -0.213,0.566 -0.039,0.815l6.513,9.311c0.309,0.442 -0.008,1.049 -0.547,1.049z"></path></g></g></svg>