<svg xmlns="http://www.w3.org/2000/svg" width="507" height="492" viewBox="0 0 507 492" version="1.1"><path d="M 164.267 79.217 C 163.699 79.923, 160.303 85.955, 156.719 92.623 C 153.136 99.291, 144.241 114.591, 136.952 126.623 C 129.664 138.655, 117.763 158.625, 110.506 171 C 91.334 203.692, 14.870 332.675, 5.366 348.352 L -0 357.205 -0 376.102 L 0 395 19.750 394.983 L 39.500 394.966 43.256 388.233 C 45.322 384.530, 50.127 376.325, 53.935 370 C 61.295 357.775, 65 351.235, 65 350.469 C 65 350.211, 61.850 350, 58 350 C 50.170 350, 49.384 349.078, 52.946 344.076 C 54.017 342.572, 58.306 335.355, 62.479 328.037 C 66.652 320.719, 73.811 308.379, 78.389 300.616 C 86.151 287.450, 113.150 241.058, 135.198 203 C 140.455 193.925, 145.555 184.925, 146.530 183 C 147.505 181.075, 150.779 175.495, 153.805 170.600 C 159.805 160.894, 158.983 161.156, 163.516 167.500 C 164.932 169.482, 164.964 169.478, 166.970 167.143 C 168.083 165.846, 174.184 155.683, 180.528 144.556 C 188.934 129.814, 191.871 123.808, 191.356 122.413 C 190.968 121.361, 187.846 115.775, 184.419 110 C 180.991 104.225, 175.754 94.803, 172.780 89.062 C 169.806 83.321, 166.906 78.469, 166.336 78.279 C 165.766 78.089, 164.835 78.511, 164.267 79.217 M 116.295 352.250 C 115.166 353.488, 111.163 359.900, 107.401 366.500 C 103.638 373.100, 98.634 381.629, 96.280 385.454 C 93.926 389.279, 92 392.991, 92 393.704 C 92 394.740, 98.737 395, 125.525 395 L 159.049 395 161.569 390.750 C 171.442 374.099, 183.795 351.477, 183.381 350.807 C 183.107 350.363, 168.362 350, 150.615 350 C 118.429 350, 118.344 350.006, 116.295 352.250" stroke="none" fill="#161516" fill-rule="evenodd"/><path d="M 213.500 100.102 C 206.350 112.221, 198.207 126.043, 195.404 130.818 C 192.600 135.593, 184.712 148.725, 177.873 160 C 171.035 171.275, 160.101 189.725, 153.576 201 C 140.896 222.912, 131.016 239.737, 107.477 279.500 C 99.337 293.250, 85.765 316.200, 77.317 330.500 C 68.868 344.800, 61.545 357.175, 61.043 358 C 60.209 359.370, 55.617 367.128, 44.011 386.774 C 41.648 390.774, 40.041 394.374, 40.440 394.774 C 40.839 395.173, 50.867 395.500, 62.724 395.500 L 84.281 395.500 86.391 392.696 C 87.551 391.153, 97.050 374.952, 107.500 356.693 C 117.950 338.434, 127.449 321.921, 128.610 319.997 C 133.186 312.412, 147.133 288.639, 156.475 272.500 C 161.887 263.150, 169.546 250.100, 173.495 243.500 C 177.444 236.900, 185.765 222.725, 191.986 212 C 216.861 169.116, 220.869 162.500, 221.968 162.500 C 223.249 162.500, 237.182 186.023, 245.232 201.777 C 248.120 207.429, 250.989 211.929, 251.608 211.777 C 252.228 211.625, 256.167 207, 260.362 201.500 C 264.557 196, 270.917 187.702, 274.495 183.061 C 278.073 178.419, 281.053 174.144, 281.118 173.561 C 281.395 171.087, 280.390 169.002, 270.579 151.686 C 264.912 141.684, 253.844 122.025, 245.984 108 C 228.517 76.830, 229.225 77.992, 227.727 78.034 C 227.052 78.053, 220.650 87.984, 213.500 100.102 M 366.435 82.674 C 364.928 85.328, 360.454 92.900, 356.492 99.500 C 352.530 106.100, 345.562 118.025, 341.009 126 C 336.455 133.975, 329.478 145.900, 325.504 152.500 C 321.530 159.100, 310.283 178.450, 300.511 195.500 C 290.739 212.550, 280.622 229.875, 278.030 234 C 275.438 238.125, 270.688 246.225, 267.474 252 C 264.261 257.775, 257.375 269.700, 252.174 278.500 C 236.285 305.379, 233.169 310.710, 220.016 333.500 C 201.083 366.306, 189.986 385.170, 187.804 388.256 C 186.732 389.771, 186.006 391.796, 186.191 392.756 C 186.496 394.344, 188.559 394.524, 209.294 394.769 C 223.276 394.934, 232.791 394.647, 233.952 394.026 C 234.992 393.469, 240.208 385.023, 245.543 375.257 C 257.491 353.389, 287.191 299.392, 291.200 292.250 C 292.821 289.362, 294.517 287, 294.969 287 C 295.421 287, 297.261 289.363, 299.058 292.250 C 300.854 295.137, 304.904 301.553, 308.056 306.507 C 314.749 317.024, 339.338 357.769, 352.306 379.831 C 357.263 388.263, 362.332 395.827, 363.572 396.639 C 365.416 397.848, 369.550 398.060, 386.332 397.808 C 397.610 397.639, 407.155 397.182, 407.543 396.793 C 407.931 396.404, 407.231 394.379, 405.987 392.293 C 404.744 390.207, 402.593 386.475, 401.208 384 C 399.824 381.525, 392.845 369.375, 385.701 357 C 378.557 344.625, 364.968 321, 355.503 304.500 C 346.039 288, 334.184 267.525, 329.158 259 C 324.133 250.475, 320.016 242.688, 320.011 241.696 C 320.005 240.704, 327.263 227.879, 336.140 213.196 C 345.018 198.513, 355.480 181.203, 359.390 174.729 C 363.638 167.696, 367.053 163.067, 367.874 163.229 C 369.267 163.504, 379.170 179.426, 407.226 226.500 C 415.749 240.800, 429.894 264.425, 438.659 279 C 466.851 325.876, 486.585 359.069, 496.917 376.986 L 507 394.472 507 353.850 C 507 323.001, 506.696 312.660, 505.735 310.864 C 505.039 309.564, 502.618 305.350, 500.355 301.500 C 495.545 293.315, 456.252 225.877, 448.209 212 C 445.180 206.775, 440.359 198.450, 437.496 193.500 C 434.633 188.550, 427.109 175.725, 420.777 165 C 414.444 154.275, 403.872 136.050, 397.284 124.500 C 390.695 112.950, 382.536 98.877, 379.152 93.226 C 375.768 87.576, 373 82.583, 373 82.131 C 373 81.680, 372.139 80.531, 371.087 79.579 C 369.243 77.910, 369.075 78.022, 366.435 82.674 M 106.761 445.062 C 97.095 450.166, 96.356 466.349, 105.530 472.018 C 109.740 474.620, 116.032 474.864, 119.546 472.562 C 120.857 471.703, 122.572 471, 123.358 471 C 125.282 471, 126.121 468.501, 125.112 465.773 C 124.322 463.639, 124.212 463.691, 122.504 467.022 C 120.219 471.479, 119.405 471.966, 114.205 471.985 C 108.800 472.004, 105.515 469.009, 104.527 463.160 C 102.806 452.972, 106.690 446, 114.086 446 C 117.581 446, 118.814 446.584, 121.632 449.571 L 125 453.142 125.150 450.571 C 125.233 449.157, 125.345 447.438, 125.400 446.750 C 125.459 446.009, 124.586 445.627, 123.257 445.812 C 122.023 445.983, 120.011 445.421, 118.785 444.562 C 115.802 442.472, 111.313 442.659, 106.761 445.062 M 130 444.787 C 130 445.326, 130.932 446.010, 132.071 446.308 C 134.051 446.826, 134.132 447.437, 133.902 460.175 L 133.662 473.500 136.921 473.820 C 139.935 474.116, 140.121 473.966, 139.399 471.820 C 138.533 469.242, 138.539 469.417, 138.808 455.690 L 139 445.879 142.732 446.190 C 145.717 446.438, 146.646 447.022, 147.375 449.110 C 148.858 453.352, 147.411 456.968, 143.953 457.659 C 140.063 458.437, 139.415 459.622, 142.006 461.217 C 143.152 461.923, 145.475 464.652, 147.169 467.281 C 148.863 469.911, 151.063 472.499, 152.059 473.031 C 153.693 473.906, 159 474.423, 159 473.707 C 159 473.545, 156.300 470.637, 153 467.243 C 147.132 461.209, 145.550 458, 148.443 458 C 150.462 458, 153 454.064, 153 450.932 C 153 446.105, 149.858 444.539, 139.397 444.153 C 133.692 443.943, 130 444.192, 130 444.787 M 163 444.893 C 163 445.384, 163.727 446.065, 164.615 446.406 C 166.020 446.945, 166.179 448.788, 165.836 460.545 L 165.441 474.065 175.470 473.783 L 185.500 473.500 185.837 470.500 L 186.175 467.500 183.600 469.913 C 181.767 471.630, 179.806 472.351, 176.796 472.413 C 171.031 472.532, 170.256 470.515, 170.776 456.750 L 171.182 446 175.534 446 C 178.868 446, 180.243 446.508, 181.408 448.173 C 182.752 450.090, 183.006 450.149, 183.572 448.673 C 185.100 444.692, 183.539 444, 173.031 444 C 167.514 444, 163 444.402, 163 444.893 M 190.570 444.886 C 190.269 445.374, 190.917 446.007, 192.011 446.293 C 193.857 446.775, 194 447.676, 194 458.847 C 194 465.792, 193.577 471.143, 193 471.500 C 190.283 473.179, 192.806 474, 200.688 474 C 208.051 474, 209.881 473.657, 212.684 471.750 C 217.368 468.563, 219.325 463.930, 218.777 457.321 C 218.243 450.883, 215.687 446.982, 210.906 445.306 C 206.925 443.911, 191.371 443.590, 190.570 444.886 M 225.675 444.658 C 225.313 445.020, 225.509 445.908, 226.110 446.632 C 226.819 447.486, 227.079 452.522, 226.851 460.975 L 226.500 474.001 229.691 474 C 232.975 474, 234.815 472.622, 233.016 471.510 C 231.678 470.683, 231.662 447.327, 233 446.500 C 233.550 446.160, 234 445.459, 234 444.941 C 234 443.884, 226.698 443.635, 225.675 444.658 M 279.655 445.829 C 278.745 446.835, 278 448.030, 278 448.484 C 278 448.939, 276.960 450.704, 275.688 452.406 C 272.324 456.907, 265 470.646, 265 472.453 C 265 473.304, 265.380 474, 265.845 474 C 267.194 474, 269.419 471.059, 274.544 462.500 C 279.828 453.676, 280.847 452.628, 282.673 454.143 C 284.152 455.371, 286 454.444, 286 452.475 C 286 450.660, 282.833 444, 281.970 444 C 281.607 444, 280.565 444.823, 279.655 445.829 M 293.306 445.667 C 292.924 446.675, 290.899 450.157, 288.806 453.405 C 286.713 456.653, 285 459.749, 285 460.286 C 285 460.822, 283.425 463.453, 281.500 466.133 C 277.574 471.597, 277.087 474, 279.905 474 C 281.105 474, 282.785 472.336, 284.447 469.500 C 285.898 467.025, 287.450 465, 287.897 465 C 288.344 465, 289.990 467.025, 291.554 469.500 C 293.119 471.975, 294.958 474, 295.640 474 C 298.327 474, 298 471.707, 294.577 466.551 C 290.496 460.402, 290.242 458.514, 293.022 455 L 295 452.500 296.979 455 C 298.068 456.375, 299.877 459.300, 301 461.500 C 305.658 470.625, 308.114 473.941, 310.250 473.985 C 312.534 474.031, 310.744 470.138, 298.334 448.067 C 296.043 443.994, 294.262 443.144, 293.306 445.667 M 346 445 C 346 445.550, 346.666 446, 347.481 446 C 348.295 446, 349.251 447.152, 349.604 448.560 C 349.998 450.129, 350.760 450.922, 351.573 450.610 C 352.979 450.071, 357.080 454.675, 365.949 466.750 C 368.878 470.738, 371.663 474, 372.137 474 C 372.612 474, 373 472.361, 373 470.358 C 373 467.656, 372.219 465.913, 369.975 463.608 C 368.311 461.898, 364.737 457.575, 362.034 454 C 354.564 444.124, 354.415 444, 350 444 C 347.800 444, 346 444.450, 346 445 M 368 444.893 C 368 445.384, 368.675 446.045, 369.500 446.362 C 370.637 446.798, 371 448.641, 371 453.969 C 371 457.990, 371.428 461, 372 461 C 372.564 461, 373 458.169, 373 454.508 C 373 449.100, 373.334 447.809, 375 446.768 C 378.123 444.817, 377.385 444, 372.500 444 C 370.025 444, 368 444.402, 368 444.893 M 379.570 444.886 C 379.269 445.374, 379.962 446.018, 381.111 446.319 C 383.122 446.845, 383.186 447.369, 382.850 460.433 L 382.500 474.001 386.357 474.001 C 389.682 474, 390.099 473.758, 389.379 472.250 C 388.920 471.288, 388.395 465.496, 388.214 459.380 C 387.945 450.331, 388.174 447.969, 389.442 446.701 C 390.299 445.844, 391 444.886, 391 444.571 C 391 443.629, 380.163 443.927, 379.570 444.886 M 328 446.452 C 328 447.331, 326.425 451.177, 324.500 455 C 320.732 462.482, 319.898 466.160, 322.449 464.042 C 323.246 463.381, 324.435 461.189, 325.091 459.170 C 325.748 457.152, 326.822 454.717, 327.479 453.761 C 328.587 452.147, 328.756 452.183, 329.810 454.261 C 330.435 455.492, 331.585 458.300, 332.367 460.500 C 333.148 462.700, 334.353 466.075, 335.045 468 C 335.737 469.925, 336.446 472.063, 336.620 472.750 C 336.909 473.888, 345 474.662, 345 473.552 C 345 473.305, 343.917 471.934, 342.593 470.506 C 341.269 469.077, 338.201 462.867, 335.776 456.705 C 332.869 449.320, 330.792 445.391, 329.683 445.177 C 328.672 444.983, 328 445.492, 328 446.452 M 405.975 447.565 C 405.439 448.976, 405 450.525, 405 451.008 C 405 451.491, 404.129 453.374, 403.065 455.193 C 402.001 457.012, 400.184 461.047, 399.028 464.159 C 397.871 467.271, 396.266 470.364, 395.462 471.031 C 393.176 472.929, 393.731 474, 397 474 C 399.883 474, 400 473.827, 400 469.559 C 400 467.116, 400.431 464.851, 400.958 464.526 C 401.486 464.200, 402.896 461.248, 404.092 457.967 C 406.029 452.656, 408 450.172, 408 453.042 C 408 453.615, 409.310 456.885, 410.911 460.310 C 412.512 463.735, 414.138 468.216, 414.523 470.268 C 415.159 473.660, 415.516 474, 418.445 474 C 422.828 474, 423.292 473.218, 420.900 469.859 C 419.324 467.646, 410 446.618, 410 445.277 C 410 445.125, 409.314 445, 408.475 445 C 407.637 445, 406.512 446.154, 405.975 447.565 M 198.667 446.667 C 197.818 447.515, 197.799 461.257, 198.638 467.376 C 199.459 473.364, 202.288 474.405, 208.619 471.046 C 212.338 469.073, 213.008 468.190, 213.883 464.111 C 216.077 453.881, 211.576 446.108, 203.417 446.036 C 201.171 446.016, 199.033 446.300, 198.667 446.667 M 350 461.441 C 350 467.667, 349.647 469.353, 348 471 C 345.310 473.690, 345.448 474, 349.333 474 C 353.694 474, 354.080 473.467, 352.300 469.899 C 351.209 467.712, 350.994 465.363, 351.492 461.071 C 351.936 457.244, 351.796 454.992, 351.085 454.553 C 350.341 454.093, 350 456.261, 350 461.441 M 176.134 457.092 L 173.778 459 176.282 459 C 177.659 459, 179.040 458.339, 179.349 457.532 C 180.237 455.218, 178.708 455.009, 176.134 457.092 M 250.446 459.087 C 249.505 460.610, 251.549 462.387, 253.416 461.671 C 254.314 461.326, 254.718 460.429, 254.376 459.538 C 253.694 457.759, 251.427 457.499, 250.446 459.087 M 318.750 468.242 C 316.592 471.556, 316.499 474, 318.531 474 C 320.439 474, 321.247 472.013, 320.825 468.361 L 320.500 465.554 318.750 468.242" stroke="none" fill="#e1909c" fill-rule="evenodd"/></svg>