<?xml version="1.0" encoding="UTF-8"?>
<!DOCTYPE svg PUBLIC "-//W3C//DTD SVG 1.1//EN" "http://www.w3.org/Graphics/SVG/1.1/DTD/svg11.dtd">
<svg xmlns="http://www.w3.org/2000/svg" version="1.1" width="160px" height="154px" style="shape-rendering:geometricPrecision; text-rendering:geometricPrecision; image-rendering:optimizeQuality; fill-rule:evenodd; clip-rule:evenodd" xmlns:xlink="http://www.w3.org/1999/xlink">
<g><path style="opacity:1" fill="#fdfdfd" d="M -0.5,-0.5 C 52.8333,-0.5 106.167,-0.5 159.5,-0.5C 159.5,31.8333 159.5,64.1667 159.5,96.5C 145.274,73.0614 131.274,49.3948 117.5,25.5C 116.575,24.3595 115.741,24.3595 115,25.5C 110.713,33.097 106.213,40.4303 101.5,47.5C 100.078,47.7086 98.745,48.2086 97.5,49C 97.8333,49.3333 98.1667,49.6667 98.5,50C 97.0325,51.0975 96.1992,52.5975 96,54.5C 94.6487,52.981 93.1487,51.6477 91.5,50.5C 90.8076,51.0253 90.3076,51.6919 90,52.5C 88.9914,50.9751 88.4914,49.3084 88.5,47.5C 87.5,47.5 86.5,47.5 85.5,47.5C 80.845,39.5275 76.1783,31.5275 71.5,23.5C 54.3875,51.5511 37.3875,79.7178 20.5,108C 18.9343,108.765 17.6009,108.598 16.5,107.5C 27.0692,88.6971 37.9025,70.0304 49,51.5C 50.0695,51.6399 51.2361,51.6399 52.5,51.5C 55.0407,46.9175 57.7074,42.4175 60.5,38C 57.5406,33.2488 54.7072,28.4155 52,23.5C 34.4742,52.5635 16.9742,81.5635 -0.5,110.5C -0.5,73.5 -0.5,36.5 -0.5,-0.5 Z"/></g>
<g><path style="opacity:1" fill="#fcfbfb" d="M 85.5,47.5 C 86.5,47.5 87.5,47.5 88.5,47.5C 88.4914,49.3084 88.9914,50.9751 90,52.5C 90.3076,51.6919 90.8076,51.0253 91.5,50.5C 93.1487,51.6477 94.6487,52.981 96,54.5C 96.1992,52.5975 97.0325,51.0975 98.5,50C 98.1667,49.6667 97.8333,49.3333 97.5,49C 98.745,48.2086 100.078,47.7086 101.5,47.5C 87.0951,72.6416 72.4284,97.6416 57.5,122.5C 62.8023,123.663 68.1357,123.829 73.5,123C 79.7357,112.017 86.0691,101.184 92.5,90.5C 94.4586,91.7481 95.9586,93.4148 97,95.5C 102.136,104.948 107.636,114.114 113.5,123C 118.155,123.499 122.821,123.666 127.5,123.5C 119.05,107.274 110.05,91.274 100.5,75.5C 105.013,67.1275 110.013,59.1275 115.5,51.5C 130.177,74.8614 144.844,98.1948 159.5,121.5C 159.5,132.167 159.5,142.833 159.5,153.5C 106.167,153.5 52.8333,153.5 -0.5,153.5C -0.5,143.5 -0.5,133.5 -0.5,123.5C 3.83333,123.5 8.16667,123.5 12.5,123.5C 17.43,123.803 22.2633,123.469 27,122.5C 40.8333,98.8333 54.6667,75.1667 68.5,51.5C 69.1667,50.1667 69.8333,50.1667 70.5,51.5C 73.0821,56.3331 75.9155,60.9998 79,65.5C 82.357,61.6438 85.5237,57.6438 88.5,53.5C 87.4867,51.4734 86.4867,49.4734 85.5,47.5 Z"/></g>
<g><path style="opacity:1" fill="#dc8f9d" d="M 85.5,47.5 C 86.4867,49.4734 87.4867,51.4734 88.5,53.5C 85.5237,57.6438 82.357,61.6438 79,65.5C 75.9155,60.9998 73.0821,56.3331 70.5,51.5C 69.8333,50.1667 69.1667,50.1667 68.5,51.5C 54.6667,75.1667 40.8333,98.8333 27,122.5C 22.2633,123.469 17.43,123.803 12.5,123.5C 14.5737,118.91 16.907,114.41 19.5,110C 18.062,109.781 16.7287,109.281 15.5,108.5C 15.6236,107.893 15.9569,107.56 16.5,107.5C 17.6009,108.598 18.9343,108.765 20.5,108C 37.3875,79.7178 54.3875,51.5511 71.5,23.5C 76.1783,31.5275 80.845,39.5275 85.5,47.5 Z"/></g>
<g><path style="opacity:1" fill="#121011" d="M 16.5,107.5 C 15.9569,107.56 15.6236,107.893 15.5,108.5C 16.7287,109.281 18.062,109.781 19.5,110C 16.907,114.41 14.5737,118.91 12.5,123.5C 8.16667,123.5 3.83333,123.5 -0.5,123.5C -0.5,119.167 -0.5,114.833 -0.5,110.5C 16.9742,81.5635 34.4742,52.5635 52,23.5C 54.7072,28.4155 57.5406,33.2488 60.5,38C 57.7074,42.4175 55.0407,46.9175 52.5,51.5C 51.2361,51.6399 50.0695,51.6399 49,51.5C 37.9025,70.0304 27.0692,88.6971 16.5,107.5 Z"/></g>
<g><path style="opacity:1" fill="#dd8f9d" d="M 159.5,96.5 C 159.5,104.833 159.5,113.167 159.5,121.5C 144.844,98.1948 130.177,74.8614 115.5,51.5C 110.013,59.1275 105.013,67.1275 100.5,75.5C 110.05,91.274 119.05,107.274 127.5,123.5C 122.821,123.666 118.155,123.499 113.5,123C 107.636,114.114 102.136,104.948 97,95.5C 95.9586,93.4148 94.4586,91.7481 92.5,90.5C 86.0691,101.184 79.7357,112.017 73.5,123C 68.1357,123.829 62.8023,123.663 57.5,122.5C 72.4284,97.6416 87.0951,72.6416 101.5,47.5C 106.213,40.4303 110.713,33.097 115,25.5C 115.741,24.3595 116.575,24.3595 117.5,25.5C 131.274,49.3948 145.274,73.0614 159.5,96.5 Z"/></g>
<g><path style="opacity:1" fill="#282627" d="M 36.5,108.5 C 43.5316,108.17 50.5316,108.503 57.5,109.5C 54.9123,113.674 52.579,118.007 50.5,122.5C 43.1667,123.833 35.8333,123.833 28.5,122.5C 31.1785,117.806 33.8452,113.139 36.5,108.5 Z"/></g>
<g><path style="opacity:1" fill="#c7b7bb" d="M 60.5,138.5 C 68.3242,137.961 70.3242,140.961 66.5,147.5C 65.4949,146.89 65.6615,146.224 67,145.5C 67.9866,141.652 66.4866,139.652 62.5,139.5C 62.8134,142.247 62.48,144.914 61.5,147.5C 60.5159,144.572 60.1826,141.572 60.5,138.5 Z"/></g>
<g><path style="opacity:1" fill="#d8c6ca" d="M 41.5,138.5 C 43.5,138.5 45.5,138.5 47.5,138.5C 47.6427,140.262 47.3094,141.929 46.5,143.5C 47.3751,145.773 49.0418,146.773 51.5,146.5C 51.5,143.833 51.5,141.167 51.5,138.5C 53.604,138.201 55.604,138.534 57.5,139.5C 56.4425,139.906 55.1092,139.906 53.5,139.5C 53.5,141.833 53.5,144.167 53.5,146.5C 55.1439,146.714 56.6439,146.38 58,145.5C 58.6172,146.449 58.4506,147.282 57.5,148C 48.7588,150.981 44.4254,148.148 44.5,139.5C 42.6616,149.928 41.6616,149.595 41.5,138.5 Z"/></g>
<g><path style="opacity:1" fill="#e5d8db" d="M 87.5,138.5 C 89.3694,140.889 91.2028,140.889 93,138.5C 93.8481,140.874 95.1814,142.874 97,144.5C 98.4397,143.852 99.9397,143.519 101.5,143.5C 101.383,141.516 102.05,139.85 103.5,138.5C 104.677,141.53 106.343,144.197 108.5,146.5C 108.515,137.574 110.848,136.574 115.5,143.5C 116.747,141.994 116.747,140.494 115.5,139C 117.81,138.503 120.143,138.337 122.5,138.5C 121.66,150.019 123.327,150.353 127.5,139.5C 128.359,138.226 129.026,138.392 129.5,140C 130.654,142.437 131.154,144.937 131,147.5C 129.561,145.725 128.561,143.725 128,141.5C 127.023,143.74 126.523,146.073 126.5,148.5C 124.076,148.808 121.743,148.474 119.5,147.5C 120.393,144.916 120.726,142.249 120.5,139.5C 119.5,139.5 118.5,139.5 117.5,139.5C 117.813,142.247 117.48,144.914 116.5,147.5C 114.476,145.31 112.643,142.977 111,140.5C 110.289,142.899 110.456,145.232 111.5,147.5C 109.604,148.466 107.604,148.799 105.5,148.5C 105.833,145.5 104.5,144.167 101.5,144.5C 101.67,145.822 101.337,146.989 100.5,148C 98.567,148.251 96.7337,148.751 95,149.5C 93.3718,148.903 91.7051,149.237 90,150.5C 87.9681,148.169 85.8015,146.836 83.5,146.5C 85.2967,144.045 86.63,141.378 87.5,138.5 Z"/></g>
</svg>
