<svg xmlns="http://www.w3.org/2000/svg" width="721" height="346" viewBox="0 0 721 346" version="1.1"><path d="M 331.500 63.485 C 319.513 66.135, 305.103 72.170, 295.500 78.561 C 288.740 83.060, 279.570 92.276, 272.178 102 C 268.991 106.192, 262.225 121.135, 260.566 127.644 C 258.185 136.986, 258.453 155.448, 261.098 164.328 C 262.251 168.202, 264.051 172.969, 265.098 174.921 C 266.144 176.873, 267 178.973, 267 179.588 C 267 182.206, 283.309 202.594, 287.480 205.190 C 289.862 206.673, 292.109 208.367, 292.472 208.955 C 293.806 211.113, 304.834 217.744, 312.063 220.734 C 323.834 225.603, 329.448 226.914, 340.846 227.454 L 351.500 227.960 344 226.604 C 333.016 224.619, 328.649 223.197, 317.215 217.885 C 301.501 210.584, 286.378 197.624, 280.273 186.228 C 272.770 172.221, 270.308 165.415, 268.432 153.500 C 266.514 141.319, 269.680 124.520, 276.442 111 C 282.615 98.658, 287.825 92.371, 300.046 82.518 C 308.207 75.939, 326.522 67.622, 337.859 65.348 C 342.337 64.450, 346 63.329, 346 62.858 C 346 61.619, 338.468 61.945, 331.500 63.485 M 326.366 114.663 C 325.379 116.223, 323.341 118.799, 321.837 120.387 C 317.219 125.264, 313.812 135.264, 313.281 145.500 C 312.860 153.615, 313.300 157.307, 315.593 164.919 C 316.189 166.897, 316.025 167.224, 314.693 166.712 C 313.797 166.369, 312.825 166.474, 312.533 166.946 C 312.241 167.419, 313.287 168.253, 314.856 168.800 C 316.746 169.459, 319.304 172.193, 322.432 176.897 C 325.029 180.804, 327.569 184, 328.077 184 C 329.368 184, 329.308 183.754, 326.468 177.332 C 325.076 174.184, 324.142 171.073, 324.393 170.419 C 324.644 169.765, 324.221 168.332, 323.452 167.235 C 322.684 166.139, 321.541 161.925, 320.912 157.873 C 319.012 145.626, 321.163 131.073, 326.693 118.749 C 329.492 112.513, 329.293 110.034, 326.366 114.663 M 286.813 249.582 C 276.620 252.718, 271.249 265.475, 275.900 275.500 C 279.909 284.139, 286.478 288, 297.170 288 C 301.486 288, 303.578 287.385, 307.304 285.022 C 309.887 283.384, 312 281.668, 312 281.209 C 312 280.750, 310.685 279.115, 309.079 277.575 C 306.303 274.916, 306.042 274.857, 303.856 276.388 C 302.428 277.388, 299.502 278, 296.146 278 C 291.238 278, 290.424 277.669, 287.368 274.429 C 282.948 269.743, 282.916 266.154, 287.251 261.424 C 291.297 257.009, 296.894 255.907, 302.283 258.464 C 305.811 260.138, 305.873 260.128, 308.914 257.419 C 312.535 254.192, 311.893 252.772, 305.500 249.863 C 300.734 247.696, 293.306 247.584, 286.813 249.582 M 395 254.797 L 395 260.595 388.750 260.243 C 383.742 259.961, 381.842 260.304, 379.190 261.968 C 371.130 267.023, 371.289 280.212, 379.476 285.576 C 383.154 287.986, 389.291 288.500, 392.899 286.700 C 394.642 285.831, 396.229 285.562, 396.550 286.081 C 396.862 286.586, 399.116 287, 401.559 287 L 406 287 406 268 L 406 249 400.500 249 L 395 249 395 254.797 M 411.435 250.308 C 411.159 251.028, 411.061 256.990, 411.217 263.558 L 411.500 275.500 416.250 275.805 L 421 276.110 421 262.555 L 421 249 416.469 249 C 413.658 249, 411.747 249.497, 411.435 250.308 M 330 259.806 C 328.625 260.018, 326.978 260.620, 326.339 261.144 C 325.700 261.668, 324.938 261.709, 324.646 261.236 C 324.353 260.762, 322.175 260.403, 319.807 260.437 L 315.500 260.500 315.500 273.500 L 315.500 286.500 320.750 286.802 L 326 287.105 326 279.124 C 326 269.003, 328.376 265.990, 333.988 268.994 C 335.532 269.820, 336.216 269.386, 338.049 266.420 C 339.432 264.183, 339.902 262.502, 339.309 261.909 C 337.908 260.508, 332.852 259.366, 330 259.806 M 346.253 262.250 C 337.705 268.224, 338.221 279.455, 347.314 285.350 C 353.492 289.357, 365.119 288.524, 368.399 283.841 C 369.718 281.957, 369.638 281.522, 367.555 279.276 C 365.637 277.208, 364.910 276.978, 363.193 277.897 C 360.262 279.465, 353.729 279.262, 351.441 277.532 C 349.695 276.211, 350.579 276.060, 360.250 276.032 L 371 276 370.996 272.250 C 370.991 266.828, 367.907 262.346, 363.302 261.067 C 356.770 259.253, 349.854 259.733, 346.253 262.250 M 351.500 269 C 351.122 269.611, 352.656 270, 355.441 270 C 357.948 270, 360 269.550, 360 269 C 360 268.450, 358.227 268, 356.059 268 C 353.891 268, 351.840 268.450, 351.500 269 M 385.223 269.557 C 380.619 272.781, 383.895 279, 390.197 279 C 392.258 279, 393.348 278.228, 394.539 275.924 C 395.993 273.113, 395.993 272.638, 394.542 270.424 C 392.679 267.581, 388.587 267.200, 385.223 269.557 M 412.605 279.299 C 409.980 281.219, 410.842 286.069, 414.135 287.909 C 416.495 289.227, 417.042 289.202, 419.385 287.667 C 421.224 286.462, 422 285.081, 422 283.012 C 422 278.542, 416.574 276.397, 412.605 279.299 M 354.413 291.917 C 354.186 292.146, 354 299.683, 354 308.667 L 354 325 362.750 324.976 C 375.224 324.942, 378.536 323.937, 383.920 318.554 C 388.327 314.146, 388.500 313.751, 388.500 308.060 C 388.500 301.674, 386.881 298.498, 381.621 294.562 C 379.308 292.831, 376.936 292.420, 366.845 292 C 360.234 291.725, 354.640 291.688, 354.413 291.917 M 408.601 293.250 C 407.806 294.488, 406.363 297.188, 405.393 299.250 C 403.652 302.953, 403.557 303, 397.796 303 L 391.962 303 392.598 305.750 C 392.948 307.262, 394.079 309.985, 395.112 311.799 C 396.958 315.041, 396.956 315.166, 394.995 319.009 C 392.077 324.730, 392.309 325.144, 398.241 324.802 L 403.482 324.500 407.124 318 C 412.878 307.732, 420 293.056, 420 291.466 C 420 291.210, 417.760 291, 415.023 291 C 410.957 291, 409.782 291.412, 408.601 293.250 M 427.493 292.499 C 424.387 295.072, 411.505 322.390, 412.579 324.127 C 412.875 324.607, 414.931 325, 417.146 325 C 420.703 325, 421.306 324.649, 422.306 322 L 423.438 319 431.969 319.006 C 440.395 319.013, 440.521 319.049, 442.203 322.006 C 443.704 324.642, 444.450 325, 448.453 325 C 451.708 325, 453 324.598, 453 323.584 C 453 322.806, 449.850 315.954, 446 308.358 C 442.150 300.763, 439 294.018, 439 293.371 C 439 291.873, 429.149 291.127, 427.493 292.499 M 364 308 L 364 317 366.935 317 C 373.893 317, 378 313.616, 378 307.883 C 378 302.190, 374.605 299, 368.545 299 L 364 299 364 308 M 430.569 304.250 C 427.358 312.100, 427.328 312, 432.908 312 C 437.734 312, 437.912 311.904, 437.061 309.750 C 435.609 306.078, 432.890 301, 432.376 301 C 432.113 301, 431.300 302.462, 430.569 304.250" stroke="none" fill="#070e36" fill-rule="evenodd"/><path d="M 339 48.923 C 339 49.431, 340.062 51.119, 341.359 52.673 C 344.515 56.454, 347.082 61.585, 346.239 62.428 C 345.864 62.802, 346.048 63.422, 346.647 63.804 C 347.657 64.449, 350.487 70.139, 355.147 80.892 C 356.194 83.307, 356.776 85.557, 356.441 85.892 C 356.106 86.226, 349.101 86.556, 340.874 86.625 C 321.111 86.790, 319.855 87.864, 336.974 89.962 C 341.634 90.533, 348.453 91, 352.126 91 C 359.798 91, 358.645 89.468, 364.075 106.873 C 367.470 117.753, 367.639 119.686, 365.250 120.356 C 355.428 123.108, 332.014 126.956, 324.867 126.992 C 323.968 126.996, 322.981 127.966, 322.672 129.146 L 322.111 131.292 338.305 130.650 C 347.212 130.297, 357.722 129.405, 361.661 128.669 L 368.821 127.330 369.381 130.415 C 369.689 132.112, 370.246 139.857, 370.618 147.626 L 371.296 161.751 362.898 162.878 C 345.563 165.204, 337.355 166, 330.703 166 C 324.830 166, 323.899 166.239, 324.177 167.678 C 324.355 168.601, 325.850 169.756, 327.500 170.246 C 330.655 171.181, 365.807 170.434, 369.855 169.345 L 372.210 168.712 371.476 186.106 C 371.013 197.074, 370.328 203.771, 369.621 204.235 C 369.004 204.639, 363.550 204.983, 357.500 205 C 345.233 205.034, 340.664 206.321, 349.180 207.344 C 352.106 207.695, 358.039 207.987, 362.365 207.991 L 370.230 208 369.546 213.750 C 368.513 222.421, 365.375 236.768, 363.057 243.414 C 361.923 246.667, 361.202 249.535, 361.454 249.788 C 363.720 252.053, 369.281 239.507, 374.437 220.500 C 375.929 215, 377.327 209.938, 377.543 209.250 C 377.760 208.562, 379.414 207.996, 381.219 207.992 C 384.794 207.983, 403.671 205.588, 408.500 204.531 C 411.147 203.951, 411.265 204.014, 409.500 205.071 C 406.083 207.116, 402 211.308, 402 212.770 C 402 214.621, 403.091 214.169, 408.696 210 C 421.243 200.666, 438.119 179.434, 439.608 171.109 C 439.963 169.124, 441.089 164.125, 442.111 160 C 444.856 148.923, 444.571 137.792, 441.203 124.447 C 437.597 110.160, 431.586 100.277, 418.121 86.493 C 412.951 81.201, 408.724 78.107, 400.853 73.854 C 386.963 66.349, 366 59.744, 366 62.872 C 366 63.492, 366.437 64, 366.971 64 C 367.506 64, 370.409 65.091, 373.424 66.424 C 378.871 68.833, 378.898 68.867, 377.972 72.098 C 376.862 75.969, 372.934 80.298, 368.651 82.372 L 365.554 83.872 363.027 79.486 C 351.757 59.922, 339 43.695, 339 48.923 M 385.009 78.491 C 382.639 80.905, 377.955 84.325, 374.600 86.090 C 371.245 87.855, 368.356 89.413, 368.180 89.552 C 368.005 89.692, 368.735 91.987, 369.802 94.653 C 371.839 99.738, 374.377 108.248, 375.497 113.750 C 375.861 115.538, 376.520 117, 376.960 117 C 379.771 117, 391.763 111.379, 398.050 107.115 C 407.866 100.457, 412 96.746, 412 94.590 C 412 91.774, 398.140 78.718, 391.409 75.195 C 389.594 74.244, 388.750 74.679, 385.009 78.491 M 415.201 108.760 C 409.686 114.226, 402.025 118.045, 389.500 121.576 C 384 123.126, 379.363 124.480, 379.195 124.585 C 379.028 124.690, 379.590 129.792, 380.445 135.922 C 381.300 142.053, 382 149.678, 382 152.868 C 382 156.057, 382.247 158.914, 382.549 159.216 C 383.470 160.137, 390.959 158.083, 400.725 154.230 L 410 150.572 410 145.807 C 410 143.186, 409.034 138.099, 407.853 134.501 C 405.600 127.640, 405.826 125.781, 408.630 128.107 C 410.641 129.777, 416 141.399, 416 144.093 C 416 146.754, 416.773 146.557, 424.977 141.807 L 432.219 137.615 431.651 133.557 C 430.517 125.461, 424.808 110.639, 421.229 106.500 C 419.522 104.526, 419.445 104.554, 415.201 108.760 M 299.876 126.350 C 302.358 129.342, 317 131.241, 317 128.572 C 317 127.571, 315.279 126.960, 311.250 126.530 C 308.087 126.192, 303.952 125.673, 302.060 125.377 C 299.075 124.909, 298.786 125.038, 299.876 126.350 M 430.971 152.039 C 430.162 152.551, 426.746 153.893, 423.380 155.023 L 417.261 157.076 416.129 162.712 C 414.315 171.745, 409.780 179.813, 402.327 187.265 C 398.623 190.969, 394.954 194, 394.174 194 C 393.011 194, 393.048 193.596, 394.380 191.750 C 400.109 183.812, 403.023 178.444, 405.851 170.614 C 407.616 165.726, 408.852 161.519, 408.597 161.264 C 408.343 161.009, 406.641 161.247, 404.817 161.793 C 402.993 162.339, 397.180 163.783, 391.900 165.001 L 382.300 167.216 381.616 180.358 C 381.240 187.586, 380.537 195.525, 380.053 198 C 379.569 200.475, 379.265 202.593, 379.376 202.706 C 379.774 203.111, 393.620 199.985, 400.500 197.938 C 404.350 196.792, 410.435 194.518, 414.022 192.884 C 421.678 189.398, 424.427 185.764, 428.416 173.859 C 430.673 167.124, 433.544 152.210, 432.739 151.405 C 432.576 151.242, 431.780 151.527, 430.971 152.039 M 421.389 262.500 C 421.390 269.650, 421.550 272.444, 421.742 268.708 C 421.935 264.973, 421.934 259.123, 421.739 255.708 C 421.545 252.294, 421.387 255.350, 421.389 262.500 M 360.784 291.738 C 363.689 291.941, 368.189 291.939, 370.784 291.734 C 373.378 291.528, 371 291.363, 365.500 291.365 C 360 291.368, 357.878 291.536, 360.784 291.738 M 431.750 291.706 C 432.988 291.944, 435.012 291.944, 436.250 291.706 C 437.488 291.467, 436.475 291.272, 434 291.272 C 431.525 291.272, 430.512 291.467, 431.750 291.706" stroke="none" fill="#c50a0a" fill-rule="evenodd"/></svg>