<?xml version="1.0" encoding="UTF-8"?>
<!DOCTYPE svg PUBLIC "-//W3C//DTD SVG 1.1//EN" "http://www.w3.org/Graphics/SVG/1.1/DTD/svg11.dtd">
<svg xmlns="http://www.w3.org/2000/svg" version="1.1" width="1080px" height="1080px" style="shape-rendering:geometricPrecision; text-rendering:geometricPrecision; image-rendering:optimizeQuality; fill-rule:evenodd; clip-rule:evenodd" xmlns:xlink="http://www.w3.org/1999/xlink">
<g><path style="opacity:0.998" fill="#fefefe" d="M 0.5,0.5 C 359.833,0.5 719.167,0.5 1078.5,0.5C 1078.5,359.833 1078.5,719.167 1078.5,1078.5C 719.167,1078.5 359.833,1078.5 0.5,1078.5C 0.5,719.167 0.5,359.833 0.5,0.5 Z"/></g>
<g><path style="opacity:1" fill="#0b205d" d="M 357.5,408.5 C 375.17,408.333 392.836,408.5 410.5,409C 446.45,413.277 464.284,433.444 464,469.5C 460.862,494.64 447.028,510.474 422.5,517C 406.872,518.382 391.206,518.882 375.5,518.5C 375.955,534.904 375.455,551.237 374,567.5C 369.116,573.22 362.95,575.053 355.5,573C 351.407,570.993 348.573,567.827 347,563.5C 346.333,515.5 346.333,467.5 347,419.5C 348.684,413.984 352.184,410.318 357.5,408.5 Z"/></g>
<g><path style="opacity:1" fill="#0b205d" d="M 765.5,468.5 C 765.56,469.043 765.893,469.376 766.5,469.5C 767.499,452.513 767.833,435.513 767.5,418.5C 772.098,408.38 779.431,405.88 789.5,411C 791.709,412.873 793.542,415.04 795,417.5C 795.667,452.833 795.667,488.167 795,523.5C 788.621,551.879 771.121,568.713 742.5,574C 709.605,577.976 686.105,565.142 672,535.5C 663.653,508.381 670.153,485.547 691.5,467C 716.539,451.386 741.205,451.886 765.5,468.5 Z"/></g>
<g><path style="opacity:1" fill="#2d9fff" d="M 295.5,411.5 C 313.166,410.325 320.333,418.325 317,435.5C 310.32,444.613 301.82,446.779 291.5,442C 279.853,430.004 281.186,419.838 295.5,411.5 Z"/></g>
<g><path style="opacity:1" fill="#0d215d" d="M 625.5,411.5 C 635.354,409.822 642.854,413.155 648,421.5C 650.727,431.217 647.56,438.383 638.5,443C 621.149,446.317 613.315,439.151 615,421.5C 617.738,417.26 621.238,413.926 625.5,411.5 Z"/></g>
<g><path style="opacity:1" fill="#485986" d="M 767.5,418.5 C 767.833,435.513 767.499,452.513 766.5,469.5C 765.893,469.376 765.56,469.043 765.5,468.5C 766.167,451.833 766.833,435.167 767.5,418.5 Z"/></g>
<g><path style="opacity:1" fill="#818dab" d="M 376.5,434.5 C 376.5,453.833 376.5,473.167 376.5,492.5C 387.833,492.5 399.167,492.5 410.5,492.5C 399.012,493.495 387.345,493.828 375.5,493.5C 375.17,473.66 375.503,453.993 376.5,434.5 Z"/></g>
<g><path style="opacity:1" fill="#fefefe" d="M 376.5,434.5 C 389.552,434.099 402.552,434.599 415.5,436C 433.406,443.647 439.573,456.814 434,475.5C 429.445,485.695 421.612,491.361 410.5,492.5C 399.167,492.5 387.833,492.5 376.5,492.5C 376.5,473.167 376.5,453.833 376.5,434.5 Z"/></g>
<g><path style="opacity:1" fill="#0b205d" d="M 520.5,455.5 C 548.661,452.702 570.828,462.702 587,485.5C 590.763,492.026 593.097,499.026 594,506.5C 594.667,526.167 594.667,545.833 594,565.5C 588.071,575.142 580.237,576.976 570.5,571C 567.773,568.044 566.273,564.544 566,560.5C 549.609,573.448 531.109,577.614 510.5,573C 477.756,560.365 463.922,536.532 469,501.5C 477.445,476.367 494.612,461.033 520.5,455.5 Z"/></g>
<g><path style="opacity:1" fill="#091f5c" d="M 295.5,456.5 C 304.437,454.555 310.937,457.555 315,465.5C 315.667,498.5 315.667,531.5 315,564.5C 310.707,572.943 303.874,575.776 294.5,573C 291.272,571.437 289.105,568.937 288,565.5C 287.333,531.833 287.333,498.167 288,464.5C 290.028,461.308 292.528,458.641 295.5,456.5 Z"/></g>
<g><path style="opacity:1" fill="#081f5c" d="M 626.5,456.5 C 634.498,455.213 640.665,457.88 645,464.5C 645.667,497.833 645.667,531.167 645,564.5C 642.889,571.234 638.223,574.234 631,573.5C 624.492,573.661 620.159,570.661 618,564.5C 617.333,531.167 617.333,497.833 618,464.5C 620.074,460.923 622.907,458.256 626.5,456.5 Z"/></g>
<g><path style="opacity:1" fill="#fdfdfd" d="M 521.5,480.5 C 541.605,477.135 556.105,484.468 565,502.5C 570.65,530.997 559.15,546.997 530.5,550.5C 508.468,548.301 496.802,536.134 495.5,514C 497.225,497.442 505.891,486.276 521.5,480.5 Z"/></g>
<g><path style="opacity:1" fill="#fdfdfd" d="M 722.5,480.5 C 737.143,478.216 749.643,482.216 760,492.5C 768.866,505.481 769.866,519.147 763,533.5C 749.343,550.966 732.51,554.8 712.5,545C 695.624,532.053 691.791,515.886 701,496.5C 706.654,488.996 713.821,483.663 722.5,480.5 Z"/></g>
<g><path style="opacity:1" fill="#2b9eff" d="M 624.5,591.5 C 638.125,589.959 644.292,595.959 643,609.5C 633.735,620.1 623.235,629.267 611.5,637C 554.657,670.481 493.324,683.147 427.5,675C 384.382,670.187 345.049,655.52 309.5,631C 302.013,625.846 295.513,619.679 290,612.5C 288.055,605.676 289.888,600.176 295.5,596C 299.375,594.48 303.375,594.146 307.5,595C 345.447,627.291 389.447,645.291 439.5,649C 485.301,652.887 529.301,645.887 571.5,628C 591.25,618.732 608.916,606.565 624.5,591.5 Z"/></g>
</svg>
