<?xml version="1.0" encoding="UTF-8"?>
<!DOCTYPE svg PUBLIC "-//W3C//DTD SVG 1.1//EN" "http://www.w3.org/Graphics/SVG/1.1/DTD/svg11.dtd">
<svg xmlns="http://www.w3.org/2000/svg" version="1.1" width="601px" height="431px" style="shape-rendering:geometricPrecision; text-rendering:geometricPrecision; image-rendering:optimizeQuality; fill-rule:evenodd; clip-rule:evenodd" xmlns:xlink="http://www.w3.org/1999/xlink">
<g><path style="opacity:1" fill="#fefefe" d="M -0.5,-0.5 C 199.833,-0.5 400.167,-0.5 600.5,-0.5C 600.5,143.167 600.5,286.833 600.5,430.5C 400.167,430.5 199.833,430.5 -0.5,430.5C -0.5,286.833 -0.5,143.167 -0.5,-0.5 Z"/></g>
<g><path style="opacity:1" fill="#0b205d" d="M 119.5,121.5 C 137.17,121.333 154.836,121.5 172.5,122C 208.45,126.277 226.284,146.444 226,182.5C 222.862,207.64 209.028,223.474 184.5,230C 168.872,231.382 153.206,231.882 137.5,231.5C 137.955,247.904 137.455,264.237 136,280.5C 131.116,286.22 124.95,288.053 117.5,286C 113.407,283.993 110.573,280.827 109,276.5C 108.333,228.5 108.333,180.5 109,132.5C 110.684,126.984 114.184,123.318 119.5,121.5 Z"/></g>
<g><path style="opacity:1" fill="#0b205d" d="M 527.5,181.5 C 527.56,182.043 527.893,182.376 528.5,182.5C 529.499,165.513 529.833,148.513 529.5,131.5C 534.098,121.38 541.431,118.88 551.5,124C 553.709,125.873 555.542,128.04 557,130.5C 557.667,165.833 557.667,201.167 557,236.5C 550.621,264.879 533.121,281.713 504.5,287C 471.605,290.976 448.105,278.142 434,248.5C 425.653,221.381 432.153,198.547 453.5,180C 478.539,164.386 503.205,164.886 527.5,181.5 Z"/></g>
<g><path style="opacity:1" fill="#2d9fff" d="M 57.5,124.5 C 75.1662,123.325 82.3328,131.325 79,148.5C 72.3203,157.613 63.8203,159.779 53.5,155C 41.853,143.004 43.1864,132.838 57.5,124.5 Z"/></g>
<g><path style="opacity:1" fill="#0d215d" d="M 387.5,124.5 C 397.354,122.822 404.854,126.155 410,134.5C 412.727,144.217 409.56,151.383 400.5,156C 383.149,159.317 375.315,152.151 377,134.5C 379.738,130.26 383.238,126.926 387.5,124.5 Z"/></g>
<g><path style="opacity:1" fill="#485986" d="M 529.5,131.5 C 529.833,148.513 529.499,165.513 528.5,182.5C 527.893,182.376 527.56,182.043 527.5,181.5C 528.167,164.833 528.833,148.167 529.5,131.5 Z"/></g>
<g><path style="opacity:1" fill="#818dab" d="M 138.5,147.5 C 138.5,166.833 138.5,186.167 138.5,205.5C 149.833,205.5 161.167,205.5 172.5,205.5C 161.012,206.495 149.345,206.828 137.5,206.5C 137.17,186.66 137.503,166.993 138.5,147.5 Z"/></g>
<g><path style="opacity:1" fill="#fefefe" d="M 138.5,147.5 C 151.552,147.099 164.552,147.599 177.5,149C 195.406,156.647 201.573,169.814 196,188.5C 191.445,198.695 183.612,204.361 172.5,205.5C 161.167,205.5 149.833,205.5 138.5,205.5C 138.5,186.167 138.5,166.833 138.5,147.5 Z"/></g>
<g><path style="opacity:1" fill="#0b205d" d="M 282.5,168.5 C 310.661,165.702 332.828,175.702 349,198.5C 352.763,205.026 355.097,212.026 356,219.5C 356.667,239.167 356.667,258.833 356,278.5C 350.071,288.142 342.237,289.976 332.5,284C 329.773,281.044 328.273,277.544 328,273.5C 311.609,286.448 293.109,290.614 272.5,286C 239.756,273.365 225.922,249.532 231,214.5C 239.445,189.367 256.612,174.033 282.5,168.5 Z"/></g>
<g><path style="opacity:1" fill="#091f5c" d="M 57.5,169.5 C 66.4371,167.555 72.9371,170.555 77,178.5C 77.6667,211.5 77.6667,244.5 77,277.5C 72.7073,285.943 65.8739,288.776 56.5,286C 53.2716,284.437 51.1049,281.937 50,278.5C 49.3333,244.833 49.3333,211.167 50,177.5C 52.0282,174.308 54.5282,171.641 57.5,169.5 Z"/></g>
<g><path style="opacity:1" fill="#081f5c" d="M 388.5,169.5 C 396.498,168.213 402.665,170.88 407,177.5C 407.667,210.833 407.667,244.167 407,277.5C 404.889,284.234 400.223,287.234 393,286.5C 386.492,286.661 382.159,283.661 380,277.5C 379.333,244.167 379.333,210.833 380,177.5C 382.074,173.923 384.907,171.256 388.5,169.5 Z"/></g>
<g><path style="opacity:1" fill="#fdfdfd" d="M 283.5,193.5 C 303.605,190.135 318.105,197.468 327,215.5C 332.65,243.997 321.15,259.997 292.5,263.5C 270.468,261.301 258.802,249.134 257.5,227C 259.225,210.442 267.891,199.276 283.5,193.5 Z"/></g>
<g><path style="opacity:1" fill="#fdfdfd" d="M 484.5,193.5 C 499.143,191.216 511.643,195.216 522,205.5C 530.866,218.481 531.866,232.147 525,246.5C 511.343,263.966 494.51,267.8 474.5,258C 457.624,245.053 453.791,228.886 463,209.5C 468.654,201.996 475.821,196.663 484.5,193.5 Z"/></g>
<g><path style="opacity:1" fill="#2b9eff" d="M 386.5,304.5 C 400.125,302.959 406.292,308.959 405,322.5C 395.735,333.1 385.235,342.267 373.5,350C 316.657,383.481 255.324,396.147 189.5,388C 146.382,383.187 107.049,368.52 71.5,344C 64.0134,338.846 57.5134,332.679 52,325.5C 50.0547,318.676 51.888,313.176 57.5,309C 61.3749,307.48 65.3749,307.146 69.5,308C 107.447,340.291 151.447,358.291 201.5,362C 247.301,365.887 291.301,358.887 333.5,341C 353.25,331.732 370.916,319.565 386.5,304.5 Z"/></g>
</svg>
