<?xml version="1.0" encoding="UTF-8"?>
<!DOCTYPE svg PUBLIC "-//W3C//DTD SVG 1.1//EN" "http://www.w3.org/Graphics/SVG/1.1/DTD/svg11.dtd">
<svg xmlns="http://www.w3.org/2000/svg" version="1.1" width="560px" height="560px" style="shape-rendering:geometricPrecision; text-rendering:geometricPrecision; image-rendering:optimizeQuality; fill-rule:evenodd; clip-rule:evenodd" xmlns:xlink="http://www.w3.org/1999/xlink">
<g><path style="opacity:0.951" fill="#fdfefd" d="M 308.5,68.5 C 342.835,68.3333 377.168,68.5 411.5,69C 451.344,76.1788 477.511,99.0122 490,137.5C 498.889,174.814 489.722,206.647 462.5,233C 448.233,244.763 431.899,252.096 413.5,255C 390.201,256.425 366.868,256.925 343.5,256.5C 343.667,281.836 343.5,307.169 343,332.5C 335.39,348.218 323.223,353.385 306.5,348C 299.525,344.36 294.691,338.86 292,331.5C 291.333,249.5 291.333,167.5 292,85.5C 295.019,77.3156 300.519,71.649 308.5,68.5 Z M 343.5,114.5 C 361.836,114.333 380.17,114.5 398.5,115C 425.96,119.451 440.294,135.451 441.5,163C 441.67,180.986 434.004,194.653 418.5,204C 413.452,206.544 408.119,208.211 402.5,209C 382.836,209.5 363.169,209.667 343.5,209.5C 343.5,177.833 343.5,146.167 343.5,114.5 Z"/></g>
<g><path style="opacity:0.999" fill="#299efc" d="M 210.5,70.5 C 226.215,68.0075 238.382,73.3408 247,86.5C 253.421,104.911 247.921,118.411 230.5,127C 210.293,132.601 196.127,125.768 188,106.5C 186.311,88.7006 193.811,76.7006 210.5,70.5 Z"/></g>
<g><path style="opacity:0.948" fill="#fdfefe" d="M 214.5,145.5 C 229.943,144.137 239.777,150.804 244,165.5C 244.667,219.833 244.667,274.167 244,328.5C 238.763,344.045 227.93,350.212 211.5,347C 200.645,343.815 194.478,336.648 193,325.5C 192.333,272.833 192.333,220.167 193,167.5C 195.171,155.185 202.337,147.852 214.5,145.5 Z"/></g>
<g><path style="opacity:0.999" fill="#299efd" d="M 447.5,331.5 C 456.277,331.767 462.111,336.1 465,344.5C 466.061,350.724 465.394,356.724 463,362.5C 433.214,399.496 395.38,424.663 349.5,438C 337.671,441.432 325.671,444.099 313.5,446C 241.786,455.659 177.453,438.659 120.5,395C 108.544,385.381 98.3775,374.215 90,361.5C 88.0712,352.205 90.5712,344.371 97.5,338C 102.017,335.267 106.684,334.934 111.5,337C 158.654,388.294 217.32,412.294 287.5,409C 343.695,406.467 391.528,385.633 431,346.5C 435.238,339.927 440.738,334.927 447.5,331.5 Z"/></g>
</svg>
