<?xml version="1.0" encoding="UTF-8"?>
<svg xmlns="http://www.w3.org/2000/svg" xmlns:xlink="http://www.w3.org/1999/xlink" width="400px" height="200px" viewBox="0 0 400 200" version="1.1">
<defs>
<filter id="alpha" filterUnits="objectBoundingBox" x="0%" y="0%" width="100%" height="100%">
  <feColorMatrix type="matrix" in="SourceGraphic" values="0 0 0 0 1 0 0 0 0 1 0 0 0 0 1 0 0 0 1 0"/>
</filter>
<mask id="mask0">
  <g filter="url(#alpha)">
<rect x="0" y="0" width="400" height="200" style="fill:rgb(0%,0%,0%);fill-opacity:0.996078;stroke:none;"/>
  </g>
</mask>
<clipPath id="clip1">
  <rect x="0" y="0" width="400" height="200"/>
</clipPath>
<g id="surface5" clip-path="url(#clip1)">
<path style=" stroke:none;fill-rule:evenodd;fill:rgb(99.607843%,99.607843%,99.607843%);fill-opacity:1;" d="M 0.183594 0.09375 C 133.269531 0.09375 266.359375 0.09375 399.445312 0.09375 C 399.445312 66.636719 399.445312 133.179688 399.445312 199.722656 C 266.359375 199.722656 133.269531 199.722656 0.183594 199.722656 C 0.183594 133.179688 0.183594 66.636719 0.183594 0.09375 Z M 0.183594 0.09375 "/>
</g>
</defs>
<g id="surface1">
<use xlink:href="#surface5" mask="url(#mask0)"/>
<path style=" stroke:none;fill-rule:evenodd;fill:rgb(4.313726%,12.54902%,36.470589%);fill-opacity:1;" d="M 132.40625 75.648438 C 138.953125 75.617188 145.496094 75.648438 152.035156 75.742188 C 165.351562 76.53125 171.957031 80.265625 171.851562 86.945312 C 170.691406 91.601562 165.566406 94.53125 156.480469 95.742188 C 150.691406 95.996094 144.890625 96.089844 139.074219 96.019531 C 139.242188 99.054688 139.058594 102.082031 138.519531 105.09375 C 136.710938 106.152344 134.425781 106.492188 131.667969 106.109375 C 130.152344 105.738281 129.101562 105.152344 128.519531 104.351562 C 128.269531 95.464844 128.269531 86.574219 128.519531 77.683594 C 129.140625 76.664062 130.4375 75.984375 132.40625 75.648438 Z M 132.40625 75.648438 "/>
<path style=" stroke:none;fill-rule:evenodd;fill:rgb(4.313726%,12.54902%,36.470589%);fill-opacity:1;" d="M 283.519531 86.757812 C 283.539062 86.859375 283.664062 86.921875 283.890625 86.945312 C 284.257812 83.796875 284.382812 80.652344 284.257812 77.5 C 285.960938 75.625 288.679688 75.164062 292.40625 76.109375 C 293.226562 76.457031 293.90625 76.859375 294.445312 77.316406 C 294.691406 83.859375 294.691406 90.402344 294.445312 96.945312 C 292.082031 102.199219 285.601562 105.316406 275 106.296875 C 262.816406 107.03125 254.113281 104.65625 248.890625 99.167969 C 245.796875 94.144531 248.203125 89.917969 256.109375 86.480469 C 265.386719 83.589844 274.519531 83.683594 283.519531 86.757812 Z M 283.519531 86.757812 "/>
<path style=" stroke:none;fill-rule:evenodd;fill:rgb(17.647059%,62.352943%,100%);fill-opacity:1;" d="M 109.445312 76.203125 C 115.988281 75.984375 118.640625 77.46875 117.40625 80.648438 C 114.933594 82.335938 111.785156 82.738281 107.964844 81.851562 C 103.648438 79.628906 104.144531 77.746094 109.445312 76.203125 Z M 109.445312 76.203125 "/>
<path style=" stroke:none;fill-rule:evenodd;fill:rgb(5.098039%,12.941177%,36.470589%);fill-opacity:1;" d="M 231.667969 76.203125 C 235.316406 75.894531 238.09375 76.511719 240 78.054688 C 241.011719 79.855469 239.835938 81.183594 236.480469 82.035156 C 230.054688 82.652344 227.152344 81.324219 227.777344 78.054688 C 228.792969 77.269531 230.089844 76.652344 231.667969 76.203125 Z M 231.667969 76.203125 "/>
<path style=" stroke:none;fill-rule:evenodd;fill:rgb(28.235295%,34.901962%,52.549022%);fill-opacity:1;" d="M 284.257812 77.5 C 284.382812 80.652344 284.257812 83.796875 283.890625 86.945312 C 283.664062 86.921875 283.539062 86.859375 283.519531 86.757812 C 283.765625 83.671875 284.011719 80.585938 284.257812 77.5 Z M 284.257812 77.5 "/>
<path style=" stroke:none;fill-rule:evenodd;fill:rgb(50.588238%,55.29412%,67.058825%);fill-opacity:1;" d="M 139.445312 80.464844 C 139.445312 84.042969 139.445312 87.625 139.445312 91.203125 C 143.640625 91.203125 147.839844 91.203125 152.035156 91.203125 C 147.78125 91.386719 143.460938 91.449219 139.074219 91.390625 C 138.953125 87.714844 139.074219 84.074219 139.445312 80.464844 Z M 139.445312 80.464844 "/>
<path style=" stroke:none;fill-rule:evenodd;fill:rgb(99.607843%,99.607843%,99.607843%);fill-opacity:1;" d="M 139.445312 80.464844 C 144.277344 80.390625 149.09375 80.480469 153.890625 80.742188 C 160.519531 82.15625 162.804688 84.59375 160.742188 88.054688 C 159.054688 89.945312 156.152344 90.992188 152.035156 91.203125 C 147.839844 91.203125 143.640625 91.203125 139.445312 91.203125 C 139.445312 87.625 139.445312 84.042969 139.445312 80.464844 Z M 139.445312 80.464844 "/>
<path style=" stroke:none;fill-rule:evenodd;fill:rgb(4.313726%,12.54902%,36.470589%);fill-opacity:1;" d="M 192.777344 84.351562 C 203.207031 83.832031 211.417969 85.6875 217.40625 89.90625 C 218.800781 91.117188 219.664062 92.414062 220 93.796875 C 220.246094 97.4375 220.246094 101.082031 220 104.722656 C 217.804688 106.507812 214.902344 106.847656 211.296875 105.742188 C 210.285156 105.191406 209.730469 104.546875 209.628906 103.796875 C 203.558594 106.195312 196.707031 106.964844 189.074219 106.109375 C 176.945312 103.769531 171.824219 99.359375 173.703125 92.871094 C 176.832031 88.214844 183.191406 85.375 192.777344 84.351562 Z M 192.777344 84.351562 "/>
<path style=" stroke:none;fill-rule:evenodd;fill:rgb(3.529412%,12.156863%,36.078432%);fill-opacity:1;" d="M 109.445312 84.535156 C 112.753906 84.175781 115.160156 84.730469 116.667969 86.203125 C 116.914062 92.316406 116.914062 98.425781 116.667969 104.535156 C 115.078125 106.101562 112.546875 106.625 109.074219 106.109375 C 107.878906 105.820312 107.074219 105.359375 106.667969 104.722656 C 106.417969 98.488281 106.417969 92.253906 106.667969 86.019531 C 107.417969 85.425781 108.34375 84.933594 109.445312 84.535156 Z M 109.445312 84.535156 "/>
<path style=" stroke:none;fill-rule:evenodd;fill:rgb(3.137255%,12.156863%,36.078432%);fill-opacity:1;" d="M 232.035156 84.535156 C 235 84.296875 237.285156 84.792969 238.890625 86.019531 C 239.136719 92.191406 239.136719 98.363281 238.890625 104.535156 C 238.105469 105.785156 236.378906 106.339844 233.703125 106.203125 C 231.292969 106.234375 229.6875 105.679688 228.890625 104.535156 C 228.640625 98.363281 228.640625 92.191406 228.890625 86.019531 C 229.65625 85.355469 230.707031 84.863281 232.035156 84.535156 Z M 232.035156 84.535156 "/>
<path style=" stroke:none;fill-rule:evenodd;fill:rgb(99.215686%,99.215686%,99.215686%);fill-opacity:1;" d="M 193.148438 88.980469 C 200.59375 88.359375 205.964844 89.714844 209.257812 93.054688 C 211.351562 98.332031 207.09375 101.296875 196.480469 101.945312 C 188.320312 101.539062 184 99.285156 183.519531 95.183594 C 184.15625 92.117188 187.367188 90.050781 193.148438 88.980469 Z M 193.148438 88.980469 "/>
<path style=" stroke:none;fill-rule:evenodd;fill:rgb(99.215686%,99.215686%,99.215686%);fill-opacity:1;" d="M 267.59375 88.980469 C 273.015625 88.558594 277.644531 89.300781 281.480469 91.203125 C 284.765625 93.609375 285.136719 96.136719 282.59375 98.796875 C 277.535156 102.03125 271.300781 102.742188 263.890625 100.925781 C 257.636719 98.527344 256.21875 95.535156 259.628906 91.945312 C 261.722656 90.554688 264.378906 89.566406 267.59375 88.980469 Z M 267.59375 88.980469 "/>
<path style=" stroke:none;fill-rule:evenodd;fill:rgb(16.862746%,61.960787%,100%);fill-opacity:1;" d="M 231.296875 109.535156 C 236.34375 109.25 238.625 110.363281 238.148438 112.871094 C 234.714844 114.832031 230.828125 116.53125 226.480469 117.964844 C 205.429688 124.164062 182.710938 126.507812 158.332031 125 C 142.363281 124.109375 127.796875 121.394531 114.628906 116.851562 C 111.855469 115.898438 109.449219 114.753906 107.40625 113.425781 C 106.6875 112.164062 107.367188 111.144531 109.445312 110.371094 C 110.878906 110.089844 112.359375 110.027344 113.890625 110.183594 C 127.941406 116.164062 144.238281 119.5 162.777344 120.183594 C 179.742188 120.90625 196.039062 119.609375 211.667969 116.296875 C 218.980469 114.578125 225.523438 112.328125 231.296875 109.535156 Z M 231.296875 109.535156 "/>
</g>
</svg>
