<?xml version="1.0" encoding="UTF-8"?>
<!DOCTYPE svg PUBLIC "-//W3C//DTD SVG 1.1//EN" "http://www.w3.org/Graphics/SVG/1.1/DTD/svg11.dtd">
<svg xmlns="http://www.w3.org/2000/svg" version="1.1" width="587px" height="441px" style="shape-rendering:geometricPrecision; text-rendering:geometricPrecision; image-rendering:optimizeQuality; fill-rule:evenodd; clip-rule:evenodd" xmlns:xlink="http://www.w3.org/1999/xlink">
<g><path style="opacity:0.93" fill="#fafbfa" d="M 524.5,119.5 C 529.179,119.334 533.845,119.501 538.5,120C 541.769,121.682 544.269,124.182 546,127.5C 546.667,165.833 546.667,204.167 546,242.5C 535.696,273.002 514.363,288.668 482,289.5C 443.019,285.997 421.519,264.997 417.5,226.5C 418.94,199.444 431.94,180.277 456.5,169C 477.518,162.113 497.018,164.946 515,177.5C 515.333,161.833 515.667,146.167 516,130.5C 517.553,125.788 520.386,122.121 524.5,119.5 Z M 479.5,193.5 C 495.916,193.617 507.749,200.95 515,215.5C 518.987,248.814 504.154,263.314 470.5,259C 454.131,251.436 447.297,238.603 450,220.5C 453.996,204.999 463.83,195.999 479.5,193.5 Z"/></g>
<g><path style="opacity:0.004" fill="#000000" d="M 510.5,124.5 C 511.598,125.601 511.765,126.934 511,128.5C 509.666,127.122 509.499,125.789 510.5,124.5 Z"/></g>
<g><path style="opacity:1" fill="#29c5b8" d="M 45.5,121.5 C 64.6159,120.434 72.4493,129.101 69,147.5C 67.0982,152.4 63.5982,155.567 58.5,157C 46.7541,160.039 38.2541,156.206 33,145.5C 31.5988,134.637 35.7654,126.637 45.5,121.5 Z"/></g>
<g><path style="opacity:0.988" fill="#f8fafb" d="M 104.5,119.5 C 125.836,119.333 147.169,119.5 168.5,120C 199.581,126.581 215.581,145.748 216.5,177.5C 214.955,205.551 200.622,223.384 173.5,231C 158.894,232.889 144.227,233.722 129.5,233.5C 129.604,247.854 129.104,262.187 128,276.5C 120.677,289.898 111.01,291.898 99,282.5C 97.5611,280.725 96.5611,278.725 96,276.5C 95.3333,227.833 95.3333,179.167 96,130.5C 98.2835,126.386 101.117,122.72 104.5,119.5 Z M 129.5,149.5 C 141.171,149.333 152.838,149.5 164.5,150C 177.592,153.933 183.925,162.766 183.5,176.5C 184.099,190.126 177.766,198.626 164.5,202C 152.835,202.611 141.168,203.111 129.5,203.5C 129.5,185.5 129.5,167.5 129.5,149.5 Z"/></g>
<g><path style="opacity:0.993" fill="#f7f9fa" d="M 376.5,121.5 C 394.649,120.148 402.816,128.482 401,146.5C 394.791,157.462 385.625,160.962 373.5,157C 360.124,147.428 359.124,136.761 370.5,125C 372.727,124.059 374.727,122.892 376.5,121.5 Z"/></g>
<g><path style="opacity:0.004" fill="#000000" d="M 508.5,165.5 C 509.077,164.227 509.743,164.227 510.5,165.5C 510.03,166.463 509.363,166.463 508.5,165.5 Z"/></g>
<g><path style="opacity:0.926" fill="#fafbfa" d="M 268.5,165.5 C 298.451,161.906 321.951,172.239 339,196.5C 341.925,202.275 344.258,208.275 346,214.5C 347.975,235.834 347.975,257.167 346,278.5C 342.144,286.012 335.977,289.179 327.5,288C 321.753,285.921 317.586,282.088 315,276.5C 291.699,291.562 267.866,292.395 243.5,279C 217.253,257.923 210.42,231.756 223,200.5C 233.439,182.547 248.605,170.88 268.5,165.5 Z M 273.5,194.5 C 299.631,191.831 313.631,203.331 315.5,229C 314.74,243.767 307.407,253.767 293.5,259C 273.593,263.269 259.093,256.435 250,238.5C 245.043,216.736 252.877,202.069 273.5,194.5 Z"/></g>
<g><path style="opacity:0.004" fill="#000000" d="M 32.5,168.5 C 32.369,167.761 32.5357,167.094 33,166.5C 33.6917,167.437 33.525,168.103 32.5,168.5 Z"/></g>
<g><path style="opacity:0.004" fill="#000000" d="M 32.5,168.5 C 32.6716,169.492 32.3382,170.158 31.5,170.5C 31.3284,169.508 31.6618,168.842 32.5,168.5 Z"/></g>
<g><path style="opacity:0.004" fill="#000000" d="M 31.5,170.5 C 31.6567,171.873 31.49,173.207 31,174.5C 30.235,172.934 30.4017,171.601 31.5,170.5 Z"/></g>
<g><path style="opacity:0.979" fill="#f7f8f8" d="M 47.5,165.5 C 55.7253,165.529 62.2253,168.862 67,175.5C 68.8842,209.498 68.8842,243.498 67,277.5C 64.7416,284.396 59.9083,288.063 52.5,288.5C 44.157,288.258 38.657,284.258 36,276.5C 35.3333,243.5 35.3333,210.5 36,177.5C 38.6907,172.311 42.5241,168.311 47.5,165.5 Z"/></g>
<g><path style="opacity:1" fill="#f5f5f7" d="M 378.5,165.5 C 386.315,165.156 392.482,168.156 397,174.5C 398.258,184.427 398.924,194.427 399,204.5C 399.524,228.509 399.19,252.509 398,276.5C 393.6,286.616 386.1,290.116 375.5,287C 372.333,285.167 369.833,282.667 368,279.5C 367.693,261.807 366.859,244.14 365.5,226.5C 366.575,209.514 367.408,192.514 368,175.5C 370.738,171.26 374.238,167.926 378.5,165.5 Z"/></g>
<g><path style="opacity:1" fill="#27c6b7" d="M 374.5,301.5 C 391.396,300.553 397.896,308.22 394,324.5C 364.104,353.703 328.604,372.87 287.5,382C 274.596,384.873 261.596,387.206 248.5,389C 198.86,394.527 150.86,388.194 104.5,370C 81.06,359.537 59.8933,345.704 41,328.5C 36.2932,319.388 38.1266,311.888 46.5,306C 50.0387,304.496 53.7054,304.163 57.5,305C 98.6002,338.863 145.934,357.197 199.5,360C 249.951,362.58 297.284,351.913 341.5,328C 353.301,320.108 364.301,311.275 374.5,301.5 Z"/></g>
</svg>
