<svg xmlns="http://www.w3.org/2000/svg" width="666" height="375" viewBox="0 0 666 375" version="1.1"><path d="M 442.231 185.250 L 442.500 207.500 446.750 207.807 L 451 208.115 451 185.557 L 451 163 446.481 163 L 441.962 163 442.231 185.250 M 271.367 165.918 C 267.005 168.578, 265 171.808, 265 176.175 C 265 183.599, 268.122 186.447, 281.391 191.128 C 289.242 193.897, 288.236 199.455, 279.885 199.455 C 276.581 199.455, 275.267 198.864, 273.047 196.379 L 270.299 193.303 266.650 195.175 C 262.456 197.327, 262.515 197.162, 264.521 201.040 C 267.845 207.468, 281.228 210.540, 288.794 206.613 C 295.087 203.347, 297.614 196.022, 294.517 190.032 C 293.097 187.286, 289.771 185.336, 278.200 180.462 C 274.537 178.919, 273.945 178.270, 274.200 176.076 C 274.457 173.869, 275.055 173.454, 278.375 173.182 C 281.451 172.930, 282.812 173.404, 284.982 175.483 L 287.715 178.101 291.344 175.960 C 294.191 174.280, 294.780 173.461, 294.078 172.159 C 292.927 170.023, 289.108 166.563, 286.316 165.125 C 282.853 163.341, 274.900 163.763, 271.367 165.918 M 343.241 165.325 C 340.293 166.963, 338.423 169.729, 337.548 173.750 C 337.049 176.043, 336.276 177, 334.921 177 C 333.347 177, 333 177.722, 333 181 C 333 184.311, 333.339 185, 334.967 185 C 336.790 185, 336.955 185.825, 337.217 196.250 L 337.500 207.500 341.750 207.807 L 346 208.115 346 196.557 L 346 185 349 185 C 351.833 185, 352 184.778, 352 181 C 352 177.222, 351.833 177, 349 177 C 347.205 177, 346 176.478, 346 175.700 C 346 173.697, 348.155 172, 350.700 172 C 352.717 172, 353 171.507, 353 168 C 353 164.038, 352.964 164, 349.250 164.035 C 347.188 164.055, 344.484 164.635, 343.241 165.325 M 307.500 177.412 C 301.796 179.947, 298 185.875, 298 192.249 C 298 197.056, 301.681 203.639, 305.786 206.177 C 312.991 210.630, 324.901 207.959, 328.451 201.095 C 331.757 194.701, 331.183 186.286, 327.124 181.644 C 322.731 176.621, 313.674 174.668, 307.500 177.412 M 380.848 178.018 C 371.455 182.980, 369.712 195.912, 377.400 203.600 C 383.380 209.580, 391.834 210.103, 399.084 204.940 C 404.971 200.748, 406.749 191.350, 403.033 184.066 C 399.364 176.873, 388.579 173.933, 380.848 178.018 M 415.500 178.223 C 410.523 181.093, 408.004 185.925, 408.002 192.602 C 407.997 208.064, 427.982 214.306, 437.331 201.763 C 438.653 199.989, 439.512 197.001, 439.774 193.263 C 440.110 188.452, 439.791 186.937, 437.839 184.092 C 434.217 178.815, 430.706 176.716, 424.791 176.294 C 420.622 175.996, 418.652 176.405, 415.500 178.223 M 459.775 177.559 C 456.354 179.415, 455 181.907, 455 186.345 C 455 190.716, 458.846 194.220, 465.475 195.889 C 469.014 196.781, 470.056 197.476, 469.807 198.781 C 469.311 201.383, 465.157 201.496, 462.479 198.980 C 460.196 196.835, 460.099 196.829, 457.077 198.614 C 453.244 200.878, 453.216 202.162, 456.929 205.286 C 465.086 212.150, 479 207.857, 479 198.476 C 479 193.977, 476.497 191.370, 469.655 188.744 C 466.440 187.510, 463.740 186.050, 463.655 185.500 C 463.395 183.824, 468.053 183.738, 469.874 185.386 C 471.422 186.787, 471.891 186.744, 474.865 184.936 C 478.709 182.598, 478.548 181.315, 474.025 178.250 C 470.148 175.623, 463.900 175.320, 459.775 177.559 M 312 184.689 C 306.570 186.761, 305.114 193.880, 309.314 197.826 C 314.181 202.397, 322 198.989, 322 192.296 C 322 187.080, 316.567 182.946, 312 184.689 M 385.500 185.155 C 380.596 187.837, 379.583 192.929, 383.073 197.365 C 386.450 201.658, 392.973 200.886, 395.558 195.887 C 397.424 192.280, 396.564 188.589, 393.253 185.984 C 390.425 183.760, 388.439 183.547, 385.500 185.155 M 418.923 186.923 C 415.473 190.374, 415.201 193.714, 418.073 197.365 C 422.213 202.629, 432 199.189, 432 192.469 C 432 189.263, 427.029 184, 424 184 C 422.815 184, 420.531 185.315, 418.923 186.923" stroke="none" fill="#040404" fill-rule="evenodd"/><path d="M 198.734 167.765 C 192.280 174.236, 187 180.210, 187 181.042 C 187 182.989, 200.078 196, 202.036 196 C 204.008 196, 238 161.917, 238 159.940 C 238 156.583, 235.784 156, 223.034 156 L 210.469 156 198.734 167.765 M 358.750 169.426 L 355 170.353 355 186.095 C 355 194.753, 355.280 202.565, 355.621 203.455 C 356.550 205.875, 361.379 208, 365.950 208 L 370 208 370 204 C 370 200.493, 369.717 200, 367.700 200 C 364.037 200, 363 198.080, 363 191.300 L 363 185 366.500 185 C 369.917 185, 370 184.905, 370 181 C 370 177.107, 369.908 177, 366.555 177 C 363.216 177, 363.100 176.869, 362.805 172.750 L 362.500 168.500 358.750 169.426 M 215.714 196.813 C 205.971 206.610, 198 214.903, 198 215.242 C 198 215.580, 198.707 216.564, 199.571 217.429 C 200.834 218.691, 203.625 219, 213.776 219 L 226.408 219 238.204 207.204 C 244.692 200.716, 250 194.823, 250 194.107 C 250 192.190, 236.946 179, 235.050 179 C 234.157 179, 225.456 187.016, 215.714 196.813 M 310.571 188.571 C 308.211 190.932, 308.624 194.708, 311.447 196.557 C 316.615 199.944, 322.814 192.957, 318.483 188.626 C 316.419 186.562, 312.607 186.536, 310.571 188.571" stroke="none" fill="#0c8bcd" fill-rule="evenodd"/></svg>